<svg width="191" height="37" viewBox="0 0 191 37" fill="none" xmlns="http://www.w3.org/2000/svg">
<path opacity="0.7" d="M5.58 32.126C4.704 32.126 3.912 31.976 3.204 31.676C2.508 31.376 1.956 30.944 1.548 30.38C1.14 29.816 0.93 29.15 0.918 28.382H3.618C3.654 28.898 3.834 29.306 4.158 29.606C4.494 29.906 4.95 30.056 5.526 30.056C6.114 30.056 6.576 29.918 6.912 29.642C7.248 29.354 7.416 28.982 7.416 28.526C7.416 28.154 7.302 27.848 7.074 27.608C6.846 27.368 6.558 27.182 6.21 27.05C5.874 26.906 5.406 26.75 4.806 26.582C3.99 26.342 3.324 26.108 2.808 25.88C2.304 25.64 1.866 25.286 1.494 24.818C1.134 24.338 0.954 23.702 0.954 22.91C0.954 22.166 1.14 21.518 1.512 20.966C1.884 20.414 2.406 19.994 3.078 19.706C3.75 19.406 4.518 19.256 5.382 19.256C6.678 19.256 7.728 19.574 8.532 20.21C9.348 20.834 9.798 21.71 9.882 22.838H7.11C7.086 22.406 6.9 22.052 6.552 21.776C6.216 21.488 5.766 21.344 5.202 21.344C4.71 21.344 4.314 21.47 4.014 21.722C3.726 21.974 3.582 22.34 3.582 22.82C3.582 23.156 3.69 23.438 3.906 23.666C4.134 23.882 4.41 24.062 4.734 24.206C5.07 24.338 5.538 24.494 6.138 24.674C6.954 24.914 7.62 25.154 8.136 25.394C8.652 25.634 9.096 25.994 9.468 26.474C9.84 26.954 10.026 27.584 10.026 28.364C10.026 29.036 9.852 29.66 9.504 30.236C9.156 30.812 8.646 31.274 7.974 31.622C7.302 31.958 6.504 32.126 5.58 32.126ZM11.5627 26.978C11.5627 25.97 11.7607 25.076 12.1567 24.296C12.5648 23.516 13.1108 22.916 13.7948 22.496C14.4908 22.076 15.2648 21.866 16.1168 21.866C16.8608 21.866 17.5088 22.016 18.0608 22.316C18.6248 22.616 19.0748 22.994 19.4108 23.45V22.028H21.9488V32H19.4108V30.542C19.0868 31.01 18.6368 31.4 18.0608 31.712C17.4968 32.012 16.8428 32.162 16.0988 32.162C15.2588 32.162 14.4908 31.946 13.7948 31.514C13.1108 31.082 12.5648 30.476 12.1567 29.696C11.7607 28.904 11.5627 27.998 11.5627 26.978ZM19.4108 27.014C19.4108 26.402 19.2908 25.88 19.0508 25.448C18.8108 25.004 18.4868 24.668 18.0788 24.44C17.6708 24.2 17.2328 24.08 16.7648 24.08C16.2968 24.08 15.8648 24.194 15.4688 24.422C15.0728 24.65 14.7488 24.986 14.4968 25.43C14.2568 25.862 14.1368 26.378 14.1368 26.978C14.1368 27.578 14.2568 28.106 14.4968 28.562C14.7488 29.006 15.0728 29.348 15.4688 29.588C15.8768 29.828 16.3088 29.948 16.7648 29.948C17.2328 29.948 17.6708 29.834 18.0788 29.606C18.4868 29.366 18.8108 29.03 19.0508 28.598C19.2908 28.154 19.4108 27.626 19.4108 27.014ZM28.568 29.678L31.088 22.028H33.77L30.08 32H27.02L23.348 22.028H26.048L28.568 29.678ZM44.4554 26.798C44.4554 27.158 44.4314 27.482 44.3834 27.77H37.0934C37.1534 28.49 37.4054 29.054 37.8494 29.462C38.2934 29.87 38.8394 30.074 39.4874 30.074C40.4234 30.074 41.0894 29.672 41.4854 28.868H44.2034C43.9154 29.828 43.3634 30.62 42.5474 31.244C41.7314 31.856 40.7294 32.162 39.5414 32.162C38.5814 32.162 37.7174 31.952 36.9494 31.532C36.1934 31.1 35.5994 30.494 35.1674 29.714C34.7474 28.934 34.5374 28.034 34.5374 27.014C34.5374 25.982 34.7474 25.076 35.1674 24.296C35.5874 23.516 36.1754 22.916 36.9314 22.496C37.6874 22.076 38.5574 21.866 39.5414 21.866C40.4894 21.866 41.3354 22.07 42.0794 22.478C42.8354 22.886 43.4174 23.468 43.8254 24.224C44.2454 24.968 44.4554 25.826 44.4554 26.798ZM41.8454 26.078C41.8334 25.43 41.5994 24.914 41.1434 24.53C40.6874 24.134 40.1294 23.936 39.4694 23.936C38.8454 23.936 38.3174 24.128 37.8854 24.512C37.4654 24.884 37.2074 25.406 37.1114 26.078H41.8454ZM59.9978 22.028V32H57.4598V30.74C57.1358 31.172 56.7098 31.514 56.1818 31.766C55.6658 32.006 55.1018 32.126 54.4898 32.126C53.7098 32.126 53.0198 31.964 52.4198 31.64C51.8198 31.304 51.3458 30.818 50.9978 30.182C50.6618 29.534 50.4938 28.766 50.4938 27.878V22.028H53.0138V27.518C53.0138 28.31 53.2118 28.922 53.6078 29.354C54.0038 29.774 54.5438 29.984 55.2278 29.984C55.9238 29.984 56.4698 29.774 56.8658 29.354C57.2618 28.922 57.4598 28.31 57.4598 27.518V22.028H59.9978ZM65.0042 23.468C65.3282 23.012 65.7722 22.634 66.3362 22.334C66.9122 22.022 67.5662 21.866 68.2982 21.866C69.1502 21.866 69.9182 22.076 70.6022 22.496C71.2982 22.916 71.8442 23.516 72.2402 24.296C72.6482 25.064 72.8522 25.958 72.8522 26.978C72.8522 27.998 72.6482 28.904 72.2402 29.696C71.8442 30.476 71.2982 31.082 70.6022 31.514C69.9182 31.946 69.1502 32.162 68.2982 32.162C67.5662 32.162 66.9182 32.012 66.3542 31.712C65.8022 31.412 65.3522 31.034 65.0042 30.578V36.752H62.4842V22.028H65.0042V23.468ZM70.2782 26.978C70.2782 26.378 70.1522 25.862 69.9002 25.43C69.6602 24.986 69.3362 24.65 68.9282 24.422C68.5322 24.194 68.1002 24.08 67.6322 24.08C67.1762 24.08 66.7442 24.2 66.3362 24.44C65.9402 24.668 65.6162 25.004 65.3642 25.448C65.1242 25.892 65.0042 26.414 65.0042 27.014C65.0042 27.614 65.1242 28.136 65.3642 28.58C65.6162 29.024 65.9402 29.366 66.3362 29.606C66.7442 29.834 67.1762 29.948 67.6322 29.948C68.1002 29.948 68.5322 29.828 68.9282 29.588C69.3362 29.348 69.6602 29.006 69.9002 28.562C70.1522 28.118 70.2782 27.59 70.2782 26.978ZM81.9065 24.098V28.922C81.9065 29.258 81.9845 29.504 82.1405 29.66C82.3085 29.804 82.5845 29.876 82.9685 29.876H84.1385V32H82.5545C80.4305 32 79.3685 30.968 79.3685 28.904V24.098H78.1805V22.028H79.3685V19.562H81.9065V22.028H84.1385V24.098H81.9065ZM90.379 32.162C89.419 32.162 88.555 31.952 87.787 31.532C87.019 31.1 86.413 30.494 85.969 29.714C85.537 28.934 85.321 28.034 85.321 27.014C85.321 25.994 85.543 25.094 85.987 24.314C86.443 23.534 87.061 22.934 87.841 22.514C88.621 22.082 89.491 21.866 90.451 21.866C91.411 21.866 92.281 22.082 93.061 22.514C93.841 22.934 94.453 23.534 94.897 24.314C95.353 25.094 95.581 25.994 95.581 27.014C95.581 28.034 95.347 28.934 94.879 29.714C94.423 30.494 93.799 31.1 93.007 31.532C92.227 31.952 91.351 32.162 90.379 32.162ZM90.379 29.966C90.835 29.966 91.261 29.858 91.657 29.642C92.065 29.414 92.389 29.078 92.629 28.634C92.869 28.19 92.989 27.65 92.989 27.014C92.989 26.066 92.737 25.34 92.233 24.836C91.741 24.32 91.135 24.062 90.415 24.062C89.695 24.062 89.089 24.32 88.597 24.836C88.117 25.34 87.877 26.066 87.877 27.014C87.877 27.962 88.111 28.694 88.579 29.21C89.059 29.714 89.659 29.966 90.379 29.966ZM101.323 29.444V27.464L107.209 19.04H110.143V27.248H111.727V29.444H110.143V32H107.623V29.444H101.323ZM107.785 21.74L104.095 27.248H107.785V21.74ZM113.331 25.268C113.331 23.192 113.703 21.566 114.447 20.39C115.203 19.214 116.451 18.626 118.191 18.626C119.931 18.626 121.173 19.214 121.917 20.39C122.673 21.566 123.051 23.192 123.051 25.268C123.051 27.356 122.673 28.994 121.917 30.182C121.173 31.37 119.931 31.964 118.191 31.964C116.451 31.964 115.203 31.37 114.447 30.182C113.703 28.994 113.331 27.356 113.331 25.268ZM120.567 25.268C120.567 24.38 120.507 23.636 120.387 23.036C120.279 22.424 120.051 21.926 119.703 21.542C119.367 21.158 118.863 20.966 118.191 20.966C117.519 20.966 117.009 21.158 116.661 21.542C116.325 21.926 116.097 22.424 115.977 23.036C115.869 23.636 115.815 24.38 115.815 25.268C115.815 26.18 115.869 26.948 115.977 27.572C116.085 28.184 116.313 28.682 116.661 29.066C117.009 29.438 117.519 29.624 118.191 29.624C118.863 29.624 119.373 29.438 119.721 29.066C120.069 28.682 120.297 28.184 120.405 27.572C120.513 26.948 120.567 26.18 120.567 25.268ZM124.68 22.1C124.68 21.188 124.944 20.474 125.472 19.958C126.012 19.442 126.702 19.184 127.542 19.184C128.382 19.184 129.066 19.442 129.594 19.958C130.134 20.474 130.404 21.188 130.404 22.1C130.404 23.024 130.134 23.744 129.594 24.26C129.066 24.776 128.382 25.034 127.542 25.034C126.702 25.034 126.012 24.776 125.472 24.26C124.944 23.744 124.68 23.024 124.68 22.1ZM136.236 19.4L129.162 32H126.714L133.77 19.4H136.236ZM127.524 20.696C126.864 20.696 126.534 21.164 126.534 22.1C126.534 23.048 126.864 23.522 127.524 23.522C127.848 23.522 128.1 23.408 128.28 23.18C128.46 22.94 128.55 22.58 128.55 22.1C128.55 21.164 128.208 20.696 127.524 20.696ZM132.582 29.282C132.582 28.358 132.846 27.644 133.374 27.14C133.914 26.624 134.604 26.366 135.444 26.366C136.284 26.366 136.962 26.624 137.478 27.14C138.006 27.644 138.27 28.358 138.27 29.282C138.27 30.206 138.006 30.926 137.478 31.442C136.962 31.958 136.284 32.216 135.444 32.216C134.592 32.216 133.902 31.958 133.374 31.442C132.846 30.926 132.582 30.206 132.582 29.282ZM135.426 27.878C134.742 27.878 134.4 28.346 134.4 29.282C134.4 30.23 134.742 30.704 135.426 30.704C136.098 30.704 136.434 30.23 136.434 29.282C136.434 28.346 136.098 27.878 135.426 27.878Z" fill="#021206"/>
<path d="M148.124 24.1316C160.083 25.462 182.159 26.3289 184.069 3.21666" stroke="url(#paint0_linear_77_2441)" stroke-width="3" stroke-linecap="round"/>
<path d="M177.44 7.94377L184.297 2.67087L189 10" stroke="url(#paint1_linear_77_2441)" stroke-width="3" stroke-linecap="round"/>
<defs>
<linearGradient id="paint0_linear_77_2441" x1="167.538" y1="-0.431921" x2="164.346" y2="29.5368" gradientUnits="userSpaceOnUse">
<stop stop-color="#FFEC42"/>
<stop offset="1" stop-color="#FFB800"/>
</linearGradient>
<linearGradient id="paint1_linear_77_2441" x1="185" y1="1" x2="181.62" y2="10.8594" gradientUnits="userSpaceOnUse">
<stop stop-color="#FFE600"/>
<stop offset="1" stop-color="#FCCA4C"/>
</linearGradient>
</defs>
</svg>
