<svg width="268" height="30" viewBox="0 0 268 30" fill="none" xmlns="http://www.w3.org/2000/svg">
<path d="M16.387 6.08285V19.9229H14.567V9.60285L9.96703 19.9229H8.68703L4.06703 9.58285V19.9229H2.24703V6.08285H4.20703L9.32703 17.5229L14.447 6.08285H16.387ZM24.2536 20.1029C23.2269 20.1029 22.2936 19.8695 21.4536 19.4029C20.6269 18.9362 19.9736 18.2762 19.4936 17.4229C19.0269 16.5562 18.7936 15.5562 18.7936 14.4229C18.7936 13.3029 19.0336 12.3162 19.5136 11.4629C20.0069 10.5962 20.6736 9.93618 21.5136 9.48285C22.3536 9.01618 23.2936 8.78285 24.3336 8.78285C25.3736 8.78285 26.3136 9.01618 27.1536 9.48285C27.9936 9.93618 28.6536 10.5895 29.1336 11.4429C29.6269 12.2962 29.8736 13.2895 29.8736 14.4229C29.8736 15.5562 29.6203 16.5562 29.1136 17.4229C28.6203 18.2762 27.9469 18.9362 27.0936 19.4029C26.2403 19.8695 25.2936 20.1029 24.2536 20.1029ZM24.2536 18.5029C24.9069 18.5029 25.5203 18.3495 26.0936 18.0429C26.6669 17.7362 27.1269 17.2762 27.4736 16.6629C27.8336 16.0495 28.0136 15.3029 28.0136 14.4229C28.0136 13.5429 27.8403 12.7962 27.4936 12.1829C27.1469 11.5695 26.6936 11.1162 26.1336 10.8229C25.5736 10.5162 24.9669 10.3629 24.3136 10.3629C23.6469 10.3629 23.0336 10.5162 22.4736 10.8229C21.9269 11.1162 21.4869 11.5695 21.1536 12.1829C20.8203 12.7962 20.6536 13.5429 20.6536 14.4229C20.6536 15.3162 20.8136 16.0695 21.1336 16.6829C21.4669 17.2962 21.9069 17.7562 22.4536 18.0629C23.0003 18.3562 23.6003 18.5029 24.2536 18.5029ZM37.6066 8.76285C38.9399 8.76285 40.0199 9.16952 40.8466 9.98285C41.6732 10.7829 42.0866 11.9429 42.0866 13.4629V19.9229H40.2866V13.7229C40.2866 12.6295 40.0132 11.7962 39.4666 11.2229C38.9199 10.6362 38.1732 10.3429 37.2266 10.3429C36.2666 10.3429 35.4999 10.6429 34.9266 11.2429C34.3666 11.8429 34.0866 12.7162 34.0866 13.8629V19.9229H32.2666V8.96285H34.0866V10.5229C34.4466 9.96285 34.9332 9.52952 35.5466 9.22285C36.1732 8.91618 36.8599 8.76285 37.6066 8.76285ZM47.2795 10.4629V16.9229C47.2795 17.4562 47.3929 17.8362 47.6195 18.0629C47.8462 18.2762 48.2395 18.3829 48.7995 18.3829H50.1395V19.9229H48.4995C47.4862 19.9229 46.7262 19.6895 46.2195 19.2229C45.7129 18.7562 45.4595 17.9895 45.4595 16.9229V10.4629H44.0395V8.96285H45.4595V6.20285H47.2795V8.96285H50.1395V10.4629H47.2795ZM57.7847 8.76285C58.6114 8.76285 59.358 8.94285 60.0247 9.30285C60.6914 9.64952 61.2114 10.1762 61.5847 10.8829C61.9714 11.5895 62.1647 12.4495 62.1647 13.4629V19.9229H60.3647V13.7229C60.3647 12.6295 60.0914 11.7962 59.5447 11.2229C58.998 10.6362 58.2514 10.3429 57.3047 10.3429C56.3447 10.3429 55.578 10.6429 55.0047 11.2429C54.4447 11.8429 54.1647 12.7162 54.1647 13.8629V19.9229H52.3447V5.12285H54.1647V10.5229C54.5247 9.96285 55.018 9.52952 55.6447 9.22285C56.2847 8.91618 56.998 8.76285 57.7847 8.76285ZM66.9577 5.12285V19.9229H65.1377V5.12285H66.9577ZM79.4995 8.96285L72.8995 25.0829H71.0195L73.1795 19.8029L68.7595 8.96285H70.7795L74.2195 17.8429L77.6195 8.96285H79.4995Z" fill="#4E5951"/>
<path d="M182.533 22.4429L180.093 19.8029C179.493 19.9762 178.833 20.0629 178.113 20.0629C176.82 20.0629 175.627 19.7629 174.533 19.1629C173.453 18.5495 172.593 17.7029 171.953 16.6229C171.327 15.5295 171.013 14.3029 171.013 12.9429C171.013 11.5829 171.327 10.3629 171.953 9.28285C172.593 8.20285 173.453 7.36285 174.533 6.76285C175.627 6.14952 176.82 5.84285 178.113 5.84285C179.42 5.84285 180.613 6.14952 181.693 6.76285C182.787 7.36285 183.647 8.20285 184.273 9.28285C184.9 10.3629 185.213 11.5829 185.213 12.9429C185.213 14.2229 184.933 15.3829 184.373 16.4229C183.827 17.4495 183.067 18.2762 182.093 18.9029L185.433 22.4429H182.533ZM173.353 12.9429C173.353 13.9695 173.553 14.8762 173.953 15.6629C174.367 16.4362 174.933 17.0362 175.653 17.4629C176.373 17.8762 177.193 18.0829 178.113 18.0829C179.033 18.0829 179.853 17.8762 180.573 17.4629C181.293 17.0362 181.853 16.4362 182.253 15.6629C182.667 14.8762 182.873 13.9695 182.873 12.9429C182.873 11.9162 182.667 11.0162 182.253 10.2429C181.853 9.46952 181.293 8.87618 180.573 8.46285C179.853 8.04952 179.033 7.84285 178.113 7.84285C177.193 7.84285 176.373 8.04952 175.653 8.46285C174.933 8.87618 174.367 9.46952 173.953 10.2429C173.553 11.0162 173.353 11.9162 173.353 12.9429ZM197.496 8.90285V19.9229H195.216V18.6229C194.856 19.0762 194.382 19.4362 193.796 19.7029C193.222 19.9562 192.609 20.0829 191.956 20.0829C191.089 20.0829 190.309 19.9029 189.616 19.5429C188.936 19.1829 188.396 18.6495 187.996 17.9429C187.609 17.2362 187.416 16.3829 187.416 15.3829V8.90285H189.676V15.0429C189.676 16.0295 189.922 16.7895 190.416 17.3229C190.909 17.8429 191.582 18.1029 192.436 18.1029C193.289 18.1029 193.962 17.8429 194.456 17.3229C194.962 16.7895 195.216 16.0295 195.216 15.0429V8.90285H197.496ZM199.744 14.3629C199.744 13.2562 199.971 12.2762 200.424 11.4229C200.891 10.5695 201.517 9.90952 202.304 9.44285C203.104 8.96285 203.984 8.72285 204.944 8.72285C205.811 8.72285 206.564 8.89618 207.204 9.24285C207.857 9.57618 208.377 9.99618 208.764 10.5029V8.90285H211.064V19.9229H208.764V18.2829C208.377 18.8029 207.851 19.2362 207.184 19.5829C206.517 19.9295 205.757 20.1029 204.904 20.1029C203.957 20.1029 203.091 19.8629 202.304 19.3829C201.517 18.8895 200.891 18.2095 200.424 17.3429C199.971 16.4629 199.744 15.4695 199.744 14.3629ZM208.764 14.4029C208.764 13.6429 208.604 12.9829 208.284 12.4229C207.977 11.8629 207.571 11.4362 207.064 11.1429C206.557 10.8495 206.011 10.7029 205.424 10.7029C204.837 10.7029 204.291 10.8495 203.784 11.1429C203.277 11.4229 202.864 11.8429 202.544 12.4029C202.237 12.9495 202.084 13.6029 202.084 14.3629C202.084 15.1229 202.237 15.7895 202.544 16.3629C202.864 16.9362 203.277 17.3762 203.784 17.6829C204.304 17.9762 204.851 18.1229 205.424 18.1229C206.011 18.1229 206.557 17.9762 207.064 17.6829C207.571 17.3895 207.977 16.9629 208.284 16.4029C208.604 15.8295 208.764 15.1629 208.764 14.4029ZM216.339 10.5029C216.672 9.94285 217.112 9.50952 217.659 9.20285C218.219 8.88285 218.879 8.72285 219.639 8.72285V11.0829H219.059C218.165 11.0829 217.485 11.3095 217.019 11.7629C216.565 12.2162 216.339 13.0029 216.339 14.1229V19.9229H214.059V8.90285H216.339V10.5029ZM224.394 10.7629V16.8629C224.394 17.2762 224.488 17.5762 224.674 17.7629C224.874 17.9362 225.208 18.0229 225.674 18.0229H227.074V19.9229H225.274C224.248 19.9229 223.461 19.6829 222.914 19.2029C222.368 18.7229 222.094 17.9429 222.094 16.8629V10.7629H220.794V8.90285H222.094V6.16285H224.394V8.90285H227.074V10.7629H224.394ZM239.276 14.1429C239.276 14.5562 239.249 14.9295 239.196 15.2629H230.776C230.842 16.1429 231.169 16.8495 231.756 17.3829C232.342 17.9162 233.062 18.1829 233.916 18.1829C235.142 18.1829 236.009 17.6695 236.516 16.6429H238.976C238.642 17.6562 238.036 18.4895 237.156 19.1429C236.289 19.7829 235.209 20.1029 233.916 20.1029C232.862 20.1029 231.916 19.8695 231.076 19.4029C230.249 18.9229 229.596 18.2562 229.116 17.4029C228.649 16.5362 228.416 15.5362 228.416 14.4029C228.416 13.2695 228.642 12.2762 229.096 11.4229C229.562 10.5562 230.209 9.88952 231.036 9.42285C231.876 8.95618 232.836 8.72285 233.916 8.72285C234.956 8.72285 235.882 8.94952 236.696 9.40285C237.509 9.85618 238.142 10.4962 238.596 11.3229C239.049 12.1362 239.276 13.0762 239.276 14.1429ZM236.896 13.4229C236.882 12.5829 236.582 11.9095 235.996 11.4029C235.409 10.8962 234.682 10.6429 233.816 10.6429C233.029 10.6429 232.356 10.8962 231.796 11.4029C231.236 11.8962 230.902 12.5695 230.796 13.4229H236.896ZM243.8 10.5029C244.133 9.94285 244.573 9.50952 245.12 9.20285C245.68 8.88285 246.34 8.72285 247.1 8.72285V11.0829H246.52C245.626 11.0829 244.946 11.3095 244.48 11.7629C244.026 12.2162 243.8 13.0029 243.8 14.1229V19.9229H241.52V8.90285H243.8V10.5029ZM251.475 5.12285V19.9229H249.195V5.12285H251.475ZM264.389 8.90285L257.629 25.1029H255.269L257.509 19.7429L253.169 8.90285H255.709L258.809 17.3029L262.029 8.90285H264.389Z" fill="#4E5951"/>
<rect x="96.4395" y="0.514648" width="58.1019" height="28.9803" rx="6" fill="#43DDAA"/>
</svg>
